<?xml version="1.0" encoding="UTF-8"?>
<!-- Generator: Adobe Illustrator 15.0.2, SVG Export Plug-In . SVG Version: 6.00 Build 0)  -->
<svg version="1.1" id="Layer_1" x="0px" y="0px" width="512px" height="153.5px" viewBox="0 0 512 153.5" enable-background="new 0 0 512 153.5" xml:space="preserve" xmlns="http://www.w3.org/2000/svg" xmlns:xlink="http://www.w3.org/1999/xlink">
<g id="ita">
	<g>
		<path d="M198.056,19.542c-0.368,0.523-2.304,1.309-5.759,1.309c-5.967,0-10.365-4.083-10.365-9.164     c0-4.816,3.873-9.579,10.313-9.579c3.298,0,4.974,1.047,6.02,0.837c0.105-0.052,0.159,0.053,0.159,0.105     c0.051,0.995,0.103,2.513,0.103,4.031c0,0.157-0.733,0.105-0.733-0.051c-0.052-0.734-0.522-1.678-1.099-2.254     c-1.047-0.995-2.775-1.624-4.764-1.624c-5.234,0-7.12,3.717-7.12,7.749c0,4.555,2.933,8.798,7.54,8.798     c2.146,0,3.561-0.368,4.555-1.52c0.575-0.733,0.942-1.624,1.202-2.461c0.053-0.158,0.683,0,0.683,0.107     C198.685,17.29,198.318,19.174,198.056,19.542z"/>
		<path d="M215.376,20.588c-0.104,0-0.104-0.628,0-0.681c1.152-0.103,1.623-0.262,1.988-0.47c0.368-0.158,0.629-0.786,0.629-5.917     v-1.675h-10.522v1.675c0,5.131,0.261,5.759,0.627,5.917c0.368,0.208,0.836,0.367,1.989,0.47c0.105,0.053,0.105,0.681,0.053,0.681     c-1.414,0-6.492,0-7.851,0c-0.054,0-0.106-0.628,0.052-0.681c1.151-0.103,1.622-0.262,1.988-0.47     c0.366-0.158,0.576-0.786,0.576-5.917V9.438c0-5.13-0.21-5.758-0.576-5.918c-0.366-0.208-0.837-0.366-1.988-0.522     c-0.158,0-0.105-0.63-0.052-0.63c1.359,0,6.438,0,7.851,0c0.052,0,0.052,0.63-0.053,0.63c-1.153,0.156-1.621,0.314-1.989,0.522     c-0.367,0.158-0.627,0.788-0.627,5.918v1.256h10.522V9.438c0-5.13-0.261-5.758-0.629-5.918c-0.365-0.208-0.835-0.366-1.988-0.522     c-0.104,0-0.104-0.63,0-0.63c1.361,0,6.438,0,7.802,0c0.104,0,0.104,0.63-0.053,0.63c-1.1,0.156-1.623,0.314-1.99,0.522     c-0.314,0.158-0.575,0.788-0.575,5.918v4.083c0,5.131,0.262,5.759,0.575,5.917c0.367,0.208,0.89,0.367,1.99,0.47     c0.158,0.053,0.158,0.681,0.053,0.681C221.814,20.588,216.738,20.588,215.376,20.588z"/>
		<path d="M226.728,20.588c-0.052,0-0.052-0.628,0.052-0.681c1.151-0.103,1.885-0.262,2.199-0.47     c0.367-0.158,0.628-0.786,0.628-5.917V9.438c0-5.13-0.261-5.758-0.628-5.918c-0.313-0.208-1.047-0.366-2.199-0.522     c-0.104,0-0.104-0.63-0.052-0.63c1.36,0,6.962,0,8.324,0c0.054,0,0.054,0.63-0.052,0.63c-1.151,0.156-1.884,0.314-2.199,0.522     c-0.368,0.158-0.627,0.788-0.627,5.918v4.083c0,5.131,0.259,5.759,0.627,5.917c0.315,0.208,1.047,0.367,2.199,0.47     c0.106,0.053,0.106,0.681,0.052,0.681C233.69,20.588,228.089,20.588,226.728,20.588z"/>
		<path d="M251.121,20.116c-0.207,0.316-0.366,0.524-1.096,0.524c-1.783,0-3.876-0.106-6.285-0.106c-1.886,0-3.038,0-5.077,0.054     c-0.105,0-0.105-0.628,0-0.681c1.151-0.103,1.674-0.262,1.989-0.47c0.366-0.158,0.626-0.786,0.626-5.917V9.438     c0-5.13-0.262-5.758-0.626-5.918c-0.315-0.208-0.837-0.366-1.989-0.522c-0.105,0-0.105-0.63,0-0.63     c2.25,0.053,5.812,0.053,7.695,0.053c2.407,0,3.77-0.053,4.606-0.103c0.156-0.053,0.211,0.052,0.211,0.103     c-0.107,0.944-0.158,2.305-0.315,3.77c-0.053,0.158-0.733,0.105-0.733-0.054c0-0.732-0.158-1.411-0.575-1.882     c-0.471-0.473-1.31-0.734-3.35-0.734c-1.152,0-1.939,0.052-2.253,0.052c-0.103,0.314-0.103,1.256-0.103,3.037v3.925h2.144     c2.775,0,3.142-0.626,3.301-1.623c0.051-0.105,0.733-0.105,0.733,0c-0.054,0.786-0.158,4.135-0.158,4.868     c0,0.106-0.735,0.106-0.735,0c0-0.523-0.104-1.253-0.419-1.515c-0.261-0.211-0.679-0.526-2.774-0.526h-2.092v1.781     c0,3.404,0.261,4.973,0.628,5.393c0.365,0.313,0.733,0.524,2.459,0.524c1.779,0,2.774-0.421,3.298-0.997     c0.419-0.417,0.733-0.994,0.944-1.937c0.05-0.158,0.573,0,0.521,0.105C251.594,18.076,251.331,19.699,251.121,20.116z"/>
		<path d="M261.066,20.85c-2.726,0-4.61-1.361-4.662-1.676c-0.209-0.942-0.209-2.566-0.051-4.031c0-0.104,0.68-0.158,0.68,0     c0.104,1.099,0.522,2.093,0.941,2.723c0.838,1.1,1.938,1.884,3.613,1.884c2.093,0,3.141-1.362,3.141-3.298     c0-4.138-7.695-4.87-7.695-9.528c0-2.88,2.722-4.923,5.393-4.923c2.198,0,2.773,0.786,3.822,0.526     c0.103-0.057,0.207,0.05,0.207,0.104c-0.052,0.994,0,2.407-0.052,3.925c0,0.104-0.679,0.104-0.733,0     c-0.051-0.891-0.471-1.992-0.941-2.461c-0.628-0.628-1.678-0.992-2.564-0.992c-1.623,0-2.83,1.097-2.83,2.824     c0,3.51,7.958,4.87,7.958,9.479C267.293,18.913,263.994,20.85,261.066,20.85z"/>
		<path d="M280.587,20.588c-0.058,0-0.104-0.628,0-0.681c0.888-0.05,1.464-0.262,1.464-0.679c0-0.472-0.368-1.415-2.043-5.394     c0.055,0-5.705,0-5.758,0c-1.36,3.561-1.676,4.607-1.676,5.238c0,0.469,0.423,0.731,1.622,0.835c0.161,0.052,0.106,0.681,0,0.681     c-0.836,0-4.71,0-6.071,0c-0.102,0-0.102-0.629,0-0.681c0.889-0.05,1.413-0.207,1.832-0.524c0.576-0.416,1.204-1.464,2.879-5.862     l1.572-4.082c0.892-2.358,1.831-4.819,2.567-7.018c0.049-0.208,1.204-0.208,1.307,0c0.84,2.463,1.622,4.449,2.618,7.018     l1.623,4.082c2.094,5.339,2.512,5.601,3.035,5.917c0.524,0.313,0.943,0.419,1.781,0.47c0.104,0.052,0.057,0.681,0,0.681     C285.977,20.588,281.947,20.588,280.587,20.588z M277.131,6.137l-2.357,6.391h4.764L277.131,6.137z"/>
		<path d="M312.552,17.812c-1.992,1.938-4.187,2.776-7.855,2.776c-1.306,0-3.351-0.054-4.449-0.054     c-1.048,0-2.617,0.054-3.875,0.054c-0.104,0-0.104-0.628,0-0.681c1.154-0.103,1.626-0.262,1.99-0.47     c0.366-0.158,0.628-0.786,0.628-5.917V9.438c0-5.13-0.262-5.758-0.628-5.918c-0.363-0.208-0.836-0.366-1.99-0.522     c-0.104,0-0.104-0.63,0-0.63c1.257,0,2.827,0.053,3.875,0.053c1.098,0,3.77-0.053,5.029-0.053c5.858,0,10.258,3.823,10.258,8.9     C315.535,13.676,314.331,16.085,312.552,17.812z M304.436,3.415c-1.781,0-2.25,0.263-2.458,0.525     c-0.16,0.208-0.424,1.517-0.424,5.394v4.188c0,3.403,0.264,4.869,0.632,5.285c0.521,0.525,0.943,0.683,2.461,0.683     c5.652,0,8.062-2.46,8.062-7.75C312.707,7.447,309.934,3.415,304.436,3.415z"/>
		<path d="M318.41,20.588c-0.051,0-0.051-0.628,0.055-0.681c1.151-0.103,1.884-0.262,2.2-0.47c0.362-0.158,0.627-0.786,0.627-5.917     V9.438c0-5.13-0.265-5.758-0.627-5.918c-0.316-0.208-1.049-0.366-2.2-0.522c-0.104,0-0.104-0.63-0.055-0.63     c1.366,0,6.966,0,8.326,0c0.051,0,0.051,0.63-0.054,0.63c-1.15,0.156-1.885,0.314-2.199,0.522     c-0.366,0.158-0.628,0.788-0.628,5.918v4.083c0,5.131,0.262,5.759,0.628,5.917c0.313,0.208,1.049,0.367,2.199,0.47     c0.104,0.053,0.104,0.681,0.054,0.681C325.375,20.588,319.774,20.588,318.41,20.588z"/>
		<path d="M113.892,60.247c-2.113,0.166-2.888,0.389-3.612,0.888c-0.443,0.277-0.609,0.724-0.609,11.72v1.113     c-3.166,1.72-7.664,2.941-12.275,2.941c-10.609,0-19.441-8.5-19.441-18.33c0-9.496,6.832-19.217,19.219-19.217     c5.83,0,9.44,1.832,11.385,1.389c0.224-0.055,0.332,0.055,0.332,0.165c0.114,1.944,0.336,5.943,0.281,8.943     c0,0.222-1.167,0.222-1.222-0.111c-0.223-1.778-0.889-3.61-2.501-5.276c-1.943-1.999-5.108-3.334-8.83-3.334     c-9.276,0-13.442,7.946-13.442,15.831c0,9.275,6.387,17.884,16.108,17.884c2.443,0,4.055-0.331,5.723-1.056     c-0.114-11.608-0.391-12.44-0.89-12.663c-0.945-0.445-2.333-0.722-5.111-0.887c-0.278,0-0.222-1.167-0.056-1.167     c2.612,0,12.383,0,14.998,0C114.113,59.081,114.113,60.247,113.892,60.247z"/>
		<path d="M142.719,75.521c-0.277,0.333-1.945,0.669-4.277,0.669c-3.333,0-5.053-0.17-9.664-0.17c-3.611,0-6.279,0.056-10.219,0.114     c-0.167,0-0.167-1.112,0.053-1.168c2.167-0.222,3.443-0.39,4.112-0.778c0.666-0.39,1.167-1.888,1.167-11.998V54.08     c0-10.108-0.501-11.607-1.167-11.997c-0.668-0.388-1.945-0.556-4.112-0.779c-0.22-0.053-0.22-1.164-0.053-1.164     c4.332,0.056,11.607,0.111,15.218,0.111c4.666,0,6.5-0.055,8.164-0.278c0.279,0,0.333,0.112,0.333,0.224     c-0.11,1.942-0.279,4.719-0.611,7.719c-0.057,0.222-1.221,0.167-1.221-0.166c0-1.333-0.389-2.889-1.278-3.776     c-1.109-1.223-2.499-1.667-5.665-1.667c-2.166,0-4.221,0-4.722,0.112c-0.168,0.555-0.223,2.611-0.223,6.11v7.887h4.554     c5.277,0,5.389-1.499,5.721-3.499c0.055-0.223,1.223-0.168,1.223,0c-0.059,1.5-0.224,8.441-0.281,9.996     c0,0.168-1.22,0.168-1.22-0.056c0-0.998-0.277-2.888-0.778-3.444c-0.5-0.499-0.778-0.832-4.723-0.832h-4.497v3.721     c0,7.166,0.333,10.444,0.832,10.944c0.5,0.499,2.222,0.724,5.501,0.724c3.442,0,4.719-0.835,5.72-1.89     c0.668-0.723,1.332-2.333,1.833-4.444c0.055-0.277,1.221-0.056,1.221,0.223C143.384,71.356,142.772,75.411,142.719,75.521z"/>
		<path d="M160.933,76.852c-4.609,0-8.386-2.053-8.885-2.774c-0.056-0.11-0.611-5.888-0.333-8.72c0-0.279,1.223-0.333,1.276,0     c0.111,2.111,1.167,4.944,1.945,6.109c1.388,2.113,3.776,3.501,7.165,3.501c3.833,0,5.943-2.555,5.943-6.556     c0-8.774-14.607-9.221-14.607-19.327c0-5.279,4.277-9.833,10.108-9.833c4.22,0,4.831,1.333,7.22,1.052     c0.223-0.052,0.333,0.057,0.333,0.169c0,1.944,0.112,5.22,0,8.22c-0.053,0.168-1.222,0.168-1.276-0.112     c-0.166-2.221-0.666-4.166-1.722-5.387c-1.223-1.334-2.779-2.167-5.165-2.167c-3.001,0-5.279,2.609-5.279,6.054     c0,7.498,14.831,9.332,14.831,18.94C172.487,72.967,166.544,76.852,160.933,76.852z"/>
		<path d="M266.842,74.301c-0.166,0.276-3.889,2.61-11.055,2.61c-11.831,0-19.327-8.275-19.327-18.33     c0-9.496,6.831-19.217,19.215-19.217c6.279,0,9.388,2.11,11.39,1.666c0.22-0.055,0.331,0.111,0.331,0.223     c0.059,1.944,0.224,5.942,0.166,8.94c-0.056,0.222-1.222,0.222-1.274-0.111c-0.224-2.276-0.947-4.164-2.277-5.608     c-1.667-1.723-5.167-3.167-8.888-3.167c-9.665,0-13.442,7.779-13.442,15.664c0,9.054,5.72,17.775,14.216,17.775     c4.114,0,6.779-1.166,8.665-3.5c1.168-1.443,1.837-3.112,2.335-4.777c0.055-0.332,1.221-0.056,1.221,0.166     C267.952,68.967,266.951,74.134,266.842,74.301z"/>
		<path d="M310.662,76.134c-4.833,0-7.444-0.557-9.607-2c-2.835-1.946-5.835-5.722-10.332-13.332     c-2.722,0.057-3.834,0.057-5.944-0.055v1.442c0,10.11,0.502,11.608,1.169,11.998c0.721,0.39,2.384,0.501,4.828,0.778     c0.224,0.056,0.224,1.168,0.061,1.168c-2.612,0-13.108,0-15.72,0c-0.166,0-0.224-1.112,0.058-1.168     c2.162-0.222,3.108-0.39,3.774-0.778c0.721-0.39,1.167-1.888,1.167-11.998V54.08c0-10.108-0.445-11.607-1.167-11.997     c-0.666-0.388-1.612-0.556-3.774-0.779c-0.279-0.053-0.224-1.164-0.058-1.164c2.442,0,5.273,0.111,7.332,0.111     c2.054,0,4.277-0.111,6.777-0.111c8.274,0,12.439,4.607,12.439,8.829c0,4.446-2.776,7.999-6.668,10.388     c7.89,11.775,12.334,15.552,16.054,15.552c2.164,0,3.5-0.333,4.167-0.722c0.665-0.39,1.165-1.888,1.165-11.998V54.08     c0-10.108-0.5-11.607-1.165-11.997c-0.667-0.388-2.112-0.556-4.277-0.779c-0.226-0.053-0.226-1.164-0.055-1.164     c2.61,0,12.994,0,15.606,0c0.223,0,0.223,1.11-0.059,1.164c-2.165,0.223-3.553,0.391-4.221,0.779     c-0.721,0.39-1.166,1.889-1.166,11.997v8.109c0,10.11,0.444,11.608,1.166,11.998c0.669,0.39,2.056,0.556,4.221,0.778     c0.279,0.056,0.279,1.168,0.059,1.168C323.88,76.134,313.329,76.134,310.662,76.134z M289.113,42.029     c-1.891,0-3.557,0.277-3.726,0.499c-0.276,0.333-0.609,3.499-0.609,11.552c0,3.333,0.11,3.942,0.333,4.167     c0.389,0.389,1.944,0.611,4.61,0.611c4.556,0,6.668-3.445,6.668-7.777C296.388,45.751,294.443,42.029,289.113,42.029z"/>
		<path d="M342.255,76.852c-4.613,0-8.388-2.053-8.889-2.774c-0.053-0.11-0.612-5.888-0.335-8.72c0-0.279,1.222-0.333,1.281,0     c0.108,2.111,1.163,4.944,1.941,6.109c1.388,2.113,3.777,3.501,7.165,3.501c3.837,0,5.944-2.555,5.944-6.556     c0-8.774-14.607-9.221-14.607-19.327c0-5.279,4.276-9.833,10.108-9.833c4.221,0,4.833,1.333,7.218,1.052     c0.225-0.052,0.338,0.057,0.338,0.169c0,1.944,0.109,5.22,0,8.22c-0.062,0.168-1.223,0.168-1.278-0.112     c-0.167-2.221-0.67-4.166-1.725-5.387c-1.22-1.334-2.774-2.167-5.164-2.167c-3,0-5.274,2.609-5.274,6.054     c0,7.498,14.828,9.332,14.828,18.94C353.808,72.967,347.864,76.852,342.255,76.852z"/>
		<path d="M390.687,49.084c-0.053,0.277-1.218,0.277-1.218-0.114c0-1.386-0.171-4.053-1.113-5.053     c-1.11-1.167-3.389-2.113-8.275-2.113c-1.278,0-1.946,0-2.498,0.113c-0.169,0.556-0.225,3.221-0.225,6.721V62.19     c0,10.11,0.5,11.608,1.167,11.999c0.664,0.389,2.055,0.555,4.277,0.778c0.22,0.055,0.22,1.167,0.055,1.167     c-2.667,0-12.996,0-15.665,0c-0.163,0-0.163-1.112,0.113-1.167c2.164-0.223,3.554-0.391,4.221-0.778     c0.721-0.391,1.169-1.889,1.169-11.999V48.639c0-3.5-0.06-6.165-0.225-6.721c-0.554-0.113-1.5-0.113-2.777-0.113     c-5.221,0-6.997,0.556-8.279,2.113c-0.885,1.055-1.438,2.999-1.828,5.167c-0.054,0.387-1.22,0.221-1.22-0.114     c0.329-2.886,0.666-7.11,0.831-8.997c0-0.168,0.277-0.278,0.668-0.223c1.939,0.334,5.498,0.61,15.162,0.61     c13.271,0,14.495-0.387,15.497-0.722c0.334-0.11,0.61,0.057,0.61,0.223C391.134,41.973,391.021,46.139,390.687,49.084z"/>
		<path d="M412.448,76.91c-10.162,0-18.216-8.276-18.216-18.33c0-9.942,7.666-19.218,19.053-19.218     c10.162,0,18.216,8.276,18.216,18.329C431.501,67.634,423.836,76.91,412.448,76.91z M412.172,41.361     c-9.72,0-12.886,8.445-12.886,15.608c0,9.054,5.555,17.94,14.276,17.94c9.721,0,12.888-8.443,12.888-15.608     C426.449,50.25,420.837,41.361,412.172,41.361z"/>
		<path d="M199,111.03c-1.992,1.934-4.19,2.773-7.854,2.773c-1.31,0-3.351-0.055-4.451-0.055c-1.048,0-2.619,0.055-3.874,0.055     c-0.105,0-0.105-0.633,0-0.683c1.151-0.104,1.624-0.265,1.99-0.474c0.365-0.154,0.626-0.782,0.626-5.91v-4.087     c0-5.13-0.262-5.756-0.626-5.917c-0.367-0.208-0.839-0.363-1.99-0.522c-0.105,0-0.105-0.629,0-0.629     c1.254,0,2.826,0.055,3.874,0.055c1.099,0,3.77-0.055,5.026-0.055c5.864,0,10.26,3.823,10.26,8.901     C201.981,106.891,200.779,109.3,199,111.03z M190.886,96.63c-1.783,0-2.252,0.264-2.462,0.521     c-0.156,0.215-0.419,1.52-0.419,5.392v4.193c0,3.398,0.264,4.866,0.629,5.283c0.523,0.524,0.941,0.683,2.46,0.683     c5.653,0,8.061-2.463,8.061-7.75C199.155,100.661,196.382,96.63,190.886,96.63z"/>
		<path d="M217.636,113.326c-0.211,0.315-0.369,0.527-1.1,0.527c-1.782,0-3.873-0.104-6.283-0.104c-1.885,0-3.037,0-5.078,0.055     c-0.104,0-0.104-0.633,0-0.683c1.151-0.104,1.676-0.265,1.99-0.474c0.367-0.154,0.627-0.782,0.627-5.91v-4.087     c0-5.13-0.261-5.756-0.627-5.917c-0.314-0.208-0.839-0.363-1.99-0.522c-0.104,0-0.104-0.629,0-0.629     c2.252,0.055,5.812,0.055,7.696,0.055c2.408,0,3.769-0.055,4.606-0.106c0.159-0.055,0.21,0.053,0.21,0.106     c-0.106,0.941-0.155,2.303-0.312,3.769c-0.053,0.155-0.735,0.102-0.735-0.053c0-0.733-0.156-1.415-0.575-1.886     c-0.472-0.472-1.309-0.733-3.35-0.733c-1.151,0-1.938,0.056-2.252,0.056c-0.103,0.312-0.103,1.257-0.103,3.034v3.928h2.146     c2.774,0,3.141-0.631,3.302-1.626c0.048-0.104,0.73-0.104,0.73,0c-0.052,0.789-0.157,4.139-0.157,4.873     c0,0.101-0.734,0.101-0.734,0c0-0.524-0.104-1.259-0.418-1.521c-0.262-0.21-0.682-0.524-2.774-0.524h-2.093v1.784     c0,3.398,0.26,4.969,0.629,5.392c0.365,0.312,0.732,0.519,2.459,0.519c1.78,0,2.775-0.419,3.298-0.994     c0.419-0.417,0.732-0.993,0.942-1.936c0.053-0.157,0.576,0,0.524,0.103C218.106,111.287,217.843,112.907,217.636,113.326z"/>
		<path d="M222.392,113.804c-0.049,0-0.049-0.633,0.054-0.683c1.151-0.104,1.885-0.265,2.199-0.474     c0.367-0.154,0.629-0.782,0.629-5.91v-4.087c0-5.13-0.262-5.756-0.629-5.917c-0.314-0.208-1.048-0.363-2.199-0.522     c-0.103,0-0.103-0.629-0.054-0.629c1.362,0,6.965,0,8.325,0c0.054,0,0.054,0.629-0.051,0.629     c-1.151,0.159-1.886,0.314-2.198,0.522c-0.367,0.161-0.629,0.787-0.629,5.917v4.087c0,5.128,0.262,5.756,0.629,5.91     c0.312,0.211,1.047,0.369,2.198,0.474c0.104,0.051,0.104,0.683,0.051,0.683C229.358,113.804,223.755,113.804,222.392,113.804z"/>
		<path d="M249.078,114.062c-2.72,0-4.605-1.358-4.658-1.676c-0.211-0.939-0.211-2.567-0.055-4.029c0-0.107,0.683-0.159,0.683,0     c0.103,1.098,0.523,2.095,0.941,2.721c0.839,1.104,1.937,1.887,3.612,1.887c2.095,0,3.144-1.362,3.144-3.298     c0-4.136-7.696-4.87-7.696-9.531c0-2.878,2.72-4.921,5.391-4.921c2.199,0,2.774,0.784,3.824,0.528     c0.104-0.054,0.208,0.047,0.208,0.103c-0.053,0.994,0,2.409-0.053,3.925c0,0.106-0.681,0.106-0.733,0     c-0.052-0.889-0.472-1.987-0.941-2.458c-0.629-0.629-1.678-0.995-2.566-0.995c-1.623,0-2.828,1.096-2.828,2.826     c0,3.508,7.957,4.87,7.957,9.474C255.309,112.127,252.011,114.062,249.078,114.062z"/>
		<path d="M268.6,113.804c-0.051,0-0.104-0.633,0-0.683c0.894-0.053,1.468-0.265,1.468-0.68c0-0.472-0.368-1.41-2.044-5.395     c0.052,0-5.708,0-5.758,0c-1.36,3.56-1.677,4.606-1.677,5.235c0,0.475,0.42,0.735,1.623,0.84c0.157,0.051,0.104,0.682,0,0.682     c-0.836,0-4.712,0-6.074,0c-0.102,0-0.102-0.632,0-0.682c0.892-0.054,1.419-0.213,1.836-0.522     c0.576-0.416,1.203-1.468,2.878-5.862l1.569-4.086c0.891-2.356,1.834-4.818,2.565-7.013c0.055-0.213,1.205-0.213,1.309,0     c0.839,2.456,1.625,4.449,2.621,7.013l1.623,4.086c2.094,5.338,2.511,5.601,3.036,5.912c0.523,0.316,0.941,0.421,1.78,0.473     c0.104,0.051,0.052,0.682,0,0.682C273.991,113.804,269.959,113.804,268.6,113.804z M265.145,99.352l-2.355,6.387h4.763     L265.145,99.352z"/>
		<path d="M295.239,96.787c-0.263,0.208-0.525,0.733-0.525,5.862v4.086c0,2.354,0,4.867,0.155,7.068c0,0.154-0.888,0.205-1.046,0.05     l-13.875-14.031l0.104,6.913c0.055,4.711,0.422,5.6,0.838,5.911c0.264,0.21,1.258,0.473,2.043,0.473c0.154,0,0.104,0.683,0,0.683     c-1.469,0-5.653,0-7.014,0c-0.104,0-0.104-0.632,0-0.683c1.149-0.104,1.83-0.263,2.146-0.521c0.264-0.212,0.521-0.733,0.472-5.862     l-0.054-4.086c-0.054-2.356,0-4.869-0.154-7.068c0-0.157,0.993-0.208,1.044-0.053l13.926,14.138l-0.104-7.017     c-0.054-5.13-0.472-5.709-0.784-5.917c-0.369-0.262-1.049-0.417-2.254-0.523c-0.154,0-0.104-0.628,0-0.628     c1.363,0,5.707,0,7.068,0c0.106,0,0.159,0.628,0,0.628C296.074,96.37,295.551,96.524,295.239,96.787z"/>
		<path d="M316.066,99.668c0,0.05-0.682,0.05-0.682-0.055c0-0.734-0.154-1.466-0.525-1.885c-0.572-0.524-1.358-0.941-4.503-0.941     c-0.623,0-0.99,0.052-1.253,0.052c-0.104,0.312-0.155,1.416-0.155,3.196v6.7c0,5.129,0.257,5.756,0.627,5.911     c0.364,0.21,1.098,0.369,2.251,0.474c0.104,0.051,0.104,0.682,0,0.682c-1.363,0-6.912,0-8.274,0c-0.103,0-0.103-0.632,0-0.682     c1.155-0.104,1.888-0.264,2.254-0.474c0.364-0.155,0.574-0.782,0.574-5.911v-6.7c0-1.781,0-2.885-0.104-3.196     c-0.262,0-0.787-0.052-1.416-0.052c-2.984,0-3.82,0.313-4.501,0.941c-0.471,0.419-0.733,1.254-0.889,1.939     c0,0.102-0.68,0-0.68-0.107c0.154-1.413,0.313-3.089,0.418-4.085c0-0.052,0.052-0.102,0.155-0.102     c1.047,0.155,3.298,0.314,8.324,0.314c6.912,0,7.958-0.159,8.483-0.368c0.103,0,0.155,0.054,0.155,0.104     C316.326,96.524,316.273,98.147,316.066,99.668z"/>
		<path d="M318.148,113.804c-0.052,0-0.052-0.633,0.053-0.683c1.151-0.104,1.885-0.265,2.202-0.474     c0.362-0.154,0.622-0.782,0.622-5.91v-4.087c0-5.13-0.26-5.756-0.622-5.917c-0.317-0.208-1.051-0.363-2.202-0.522     c-0.104,0-0.104-0.629-0.053-0.629c1.362,0,6.966,0,8.324,0c0.056,0,0.056,0.629-0.053,0.629c-1.15,0.159-1.885,0.314-2.196,0.522     c-0.368,0.161-0.632,0.787-0.632,5.917v4.087c0,5.128,0.264,5.756,0.632,5.91c0.311,0.211,1.046,0.369,2.196,0.474     c0.107,0.051,0.107,0.683,0.053,0.683C325.114,113.804,319.511,113.804,318.148,113.804z"/>
		<path d="M107.935,146.141c-1.991,1.935-4.187,2.775-7.851,2.775c-1.312,0-3.352-0.058-4.452-0.058     c-1.047,0-2.619,0.058-3.873,0.058c-0.106,0-0.106-0.63,0-0.683c1.151-0.104,1.623-0.262,1.988-0.472     c0.368-0.156,0.628-0.782,0.628-5.916v-4.081c0-5.132-0.26-5.762-0.628-5.916c-0.366-0.211-0.836-0.368-1.988-0.525     c-0.106,0-0.106-0.627,0-0.627c1.254,0,2.826,0.049,3.873,0.049c1.1,0,3.771-0.049,5.024-0.049c5.864,0,10.263,3.821,10.263,8.9     C110.92,142.004,109.715,144.411,107.935,146.141z M99.822,131.742c-1.781,0-2.252,0.262-2.46,0.522     c-0.158,0.211-0.419,1.519-0.419,5.394v4.188c0,3.405,0.261,4.87,0.626,5.288c0.525,0.525,0.944,0.681,2.462,0.681     c5.655,0,8.064-2.463,8.064-7.749C108.095,135.773,105.317,131.742,99.822,131.742z"/>
		<path d="M126.676,148.442c-0.209,0.315-0.367,0.524-1.098,0.524c-1.781,0-3.875-0.107-6.284-0.107c-1.884,0-3.034,0-5.077,0.059     c-0.105,0-0.105-0.631,0-0.684c1.151-0.104,1.674-0.263,1.989-0.471c0.366-0.157,0.628-0.782,0.628-5.918v-4.079     c0-5.134-0.263-5.763-0.628-5.918c-0.315-0.209-0.838-0.366-1.989-0.523c-0.105,0-0.105-0.627,0-0.627     c2.25,0.049,5.811,0.049,7.695,0.049c2.41,0,3.77-0.049,4.608-0.104c0.156-0.05,0.207,0.055,0.207,0.104     c-0.103,0.941-0.155,2.309-0.313,3.771c-0.051,0.158-0.732,0.105-0.732-0.051c0-0.734-0.155-1.413-0.575-1.888     c-0.473-0.472-1.309-0.73-3.353-0.73c-1.151,0-1.934,0.051-2.25,0.051c-0.104,0.316-0.104,1.256-0.104,3.038v3.925h2.146     c2.776,0,3.141-0.626,3.298-1.624c0.053-0.104,0.732-0.104,0.732,0c-0.05,0.79-0.157,4.139-0.157,4.872     c0,0.104-0.734,0.104-0.734,0c0-0.522-0.104-1.257-0.417-1.521c-0.263-0.204-0.682-0.521-2.777-0.521h-2.093v1.778     c0,3.405,0.263,4.974,0.628,5.396c0.367,0.312,0.732,0.52,2.459,0.52c1.782,0,2.775-0.421,3.297-0.993     c0.421-0.421,0.735-0.996,0.942-1.937c0.055-0.157,0.577,0,0.526,0.103C127.146,146.403,126.885,148.024,126.676,148.442z"/>
		<path d="M150.859,141.063c-1.098,0.104-1.464,0.208-1.832,0.472c-0.261,0.155-0.366,1.045-0.366,5.862v0.208     c-1.572,0.942-4.243,1.57-6.595,1.57c-5.76,0-10.471-4.187-10.471-9.162c0-4.813,3.873-9.578,10.364-9.578     c3.039,0,4.973,0.995,5.969,0.733c0.158,0,0.21,0.05,0.21,0.102c0.053,0.996,0.156,2.725,0.156,4.241     c0,0.106-0.732,0.106-0.732-0.055c-0.104-0.781-0.629-1.778-1.203-2.302c-1.046-0.993-2.933-1.673-4.87-1.673     c-4.607,0-7.015,3.508-7.015,7.746c0,4.663,3.09,8.797,8.532,8.797c1.312,0,2.25-0.209,3.088-0.575     c-0.05-5.133-0.208-5.759-0.47-5.914c-0.313-0.158-1.049-0.367-2.199-0.473c-0.104,0-0.104-0.678,0-0.678c1.361,0,6.125,0,7.488,0     C151.015,140.385,151.015,141.063,150.859,141.063z"/>
		<path d="M166.974,148.442c-0.209,0.315-0.522,0.524-1.255,0.524c-1.782,0-3.876-0.107-6.284-0.107c-1.887,0-3.247,0-5.34,0.059     c-0.053,0-0.053-0.631,0.053-0.684c1.151-0.104,1.623-0.263,1.988-0.471c0.367-0.157,0.576-0.782,0.576-5.918v-4.079     c0-5.134-0.209-5.763-0.576-5.918c-0.366-0.209-0.837-0.366-1.988-0.523c-0.106,0-0.106-0.627-0.053-0.627c1.36,0,6.492,0,7.852,0     c0.051,0,0.051,0.627-0.052,0.627c-1.151,0.157-1.625,0.314-1.988,0.523c-0.368,0.155-0.577,0.784-0.577,5.918v4.079     c0,3.407,0.263,4.976,0.628,5.397c0.313,0.312,0.732,0.521,2.408,0.521c1.623,0,2.722-0.421,3.403-1.207     c0.627-0.728,1.1-1.935,1.309-2.824c0.051-0.156,0.732-0.054,0.732,0.105C167.655,145.301,167.238,148.024,166.974,148.442z"/>
		<path d="M170.53,148.916c-0.054,0-0.054-0.63,0.051-0.683c1.152-0.104,1.886-0.262,2.199-0.472     c0.366-0.156,0.631-0.782,0.631-5.916v-4.081c0-5.132-0.265-5.762-0.631-5.916c-0.312-0.211-1.046-0.368-2.199-0.525     c-0.105,0-0.105-0.627-0.051-0.627c1.361,0,6.963,0,8.325,0c0.052,0,0.052,0.627-0.052,0.627     c-1.151,0.157-1.885,0.314-2.199,0.525c-0.367,0.154-0.629,0.784-0.629,5.916v4.081c0,5.134,0.263,5.76,0.629,5.916     c0.315,0.21,1.048,0.366,2.199,0.472c0.104,0.054,0.104,0.683,0.052,0.683C177.494,148.916,171.892,148.916,170.53,148.916z"/>
		<path d="M210.356,131.899c-0.263,0.208-0.524,0.733-0.524,5.865v4.71c0,3.353-2.828,6.7-7.382,6.7     c-4.504,0-7.645-2.983-7.645-6.648v-4.762c0-5.132-0.262-5.762-0.627-5.916c-0.367-0.211-0.838-0.368-1.989-0.525     c-0.106,0-0.106-0.627,0-0.627c1.361,0,6.595,0,7.958,0c0.052,0,0.104,0.627-0.055,0.627c-1.096,0.157-1.727,0.314-2.091,0.525     c-0.367,0.154-0.63,0.784-0.63,5.916v4.029c0,3.507,2.146,5.76,5.76,5.76c3.56,0,5.236-2.303,5.236-5.445v-4.344     c0-5.132-0.261-5.657-0.523-5.865c-0.312-0.262-0.995-0.419-2.146-0.576c-0.105,0-0.054-0.627,0-0.627c1.414,0,5.287,0,6.648,0     c0.103,0,0.158,0.627,0,0.627C211.193,131.482,210.669,131.639,210.356,131.899z"/>
		<path d="M228.409,148.442c-0.208,0.315-0.521,0.524-1.256,0.524c-1.779,0-3.874-0.107-6.283-0.107c-1.884,0-3.247,0-5.34,0.059     c-0.052,0-0.052-0.631,0.053-0.684c1.151-0.104,1.624-0.263,1.99-0.471c0.366-0.157,0.576-0.782,0.576-5.918v-4.079     c0-5.134-0.21-5.763-0.576-5.918c-0.367-0.209-0.838-0.366-1.99-0.523c-0.105,0-0.105-0.627-0.053-0.627c1.361,0,6.492,0,7.852,0     c0.054,0,0.054,0.627-0.051,0.627c-1.151,0.157-1.623,0.314-1.99,0.523c-0.367,0.155-0.577,0.784-0.577,5.918v4.079     c0,3.407,0.262,4.976,0.629,5.397c0.314,0.312,0.732,0.521,2.408,0.521c1.622,0,2.722-0.421,3.402-1.207     c0.627-0.728,1.099-1.935,1.309-2.824c0.05-0.156,0.732-0.054,0.732,0.105C229.091,145.301,228.672,148.024,228.409,148.442z"/>
		<path d="M246.256,134.778c0,0.053-0.682,0.053-0.682-0.051c0-0.732-0.154-1.465-0.521-1.883c-0.574-0.524-1.362-0.945-4.502-0.945     c-0.628,0-0.995,0.055-1.256,0.055c-0.105,0.311-0.158,1.413-0.158,3.191v6.7c0,5.134,0.262,5.76,0.628,5.916     c0.367,0.21,1.099,0.366,2.25,0.472c0.105,0.054,0.105,0.683,0,0.683c-1.361,0-6.91,0-8.272,0c-0.103,0-0.103-0.63,0-0.683     c1.151-0.104,1.886-0.262,2.254-0.472c0.367-0.156,0.575-0.782,0.575-5.916v-6.7c0-1.778,0-2.881-0.105-3.191     c-0.262,0-0.785-0.055-1.414-0.055c-2.983,0-3.822,0.316-4.501,0.945c-0.472,0.418-0.733,1.255-0.89,1.934     c0,0.104-0.681,0-0.681-0.104c0.156-1.413,0.314-3.09,0.419-4.082c0-0.056,0.053-0.106,0.158-0.106     c1.047,0.156,3.298,0.314,8.323,0.314c6.911,0,7.959-0.158,8.482-0.366c0.105,0,0.156,0.052,0.156,0.103     C246.518,131.639,246.467,133.263,246.256,134.778z"/>
		<path d="M248.602,148.916c-0.05,0-0.05-0.63,0.055-0.683c1.153-0.104,1.883-0.262,2.198-0.472     c0.367-0.156,0.629-0.782,0.629-5.916v-4.081c0-5.132-0.262-5.762-0.629-5.916c-0.315-0.211-1.045-0.368-2.198-0.525     c-0.104,0-0.104-0.627-0.055-0.627c1.359,0,6.962,0,8.324,0c0.054,0,0.054,0.627-0.052,0.627c-1.153,0.157-1.884,0.314-2.2,0.525     c-0.365,0.154-0.627,0.784-0.627,5.916v4.081c0,5.134,0.262,5.76,0.627,5.916c0.313,0.21,1.047,0.366,2.2,0.472     c0.104,0.054,0.104,0.683,0.052,0.683C255.564,148.916,249.962,148.916,248.602,148.916z"/>
		<path d="M277.605,148.916c-0.056,0-0.105-0.63,0-0.683c0.784-0.053,1.409-0.158,1.729-0.364c0.312-0.264,0.417-0.838-0.107-6.023     l-0.575-5.598l-6.178,12.72c0,0.154-0.944,0.154-0.944,0l-6.646-12.615l-0.523,5.339c-0.524,5.341-0.161,5.864,0.208,6.125     c0.263,0.209,1.048,0.366,1.831,0.418c0.157,0.055,0.106,0.684,0,0.684c-1.359,0-5.446,0-6.856,0     c-0.054,0-0.054-0.631,0.104-0.684c1.152-0.104,1.778-0.263,2.095-0.525c0.209-0.153,0.679-0.728,1.15-5.861l0.368-4.081     c0.208-2.357,0.468-4.818,0.574-7.02c0-0.103,0.889-0.209,0.941-0.049l7.803,14.918l7.275-14.918     c0.104-0.16,0.997-0.054,0.997,0.049c0.155,2.462,0.31,4.455,0.627,7.02l0.472,4.081c0.576,5.134,0.787,5.76,1.097,5.916     c0.37,0.21,0.892,0.366,2.046,0.472c0.103,0.054,0.154,0.683,0.051,0.683C283.782,148.916,278.967,148.916,277.605,148.916z"/>
		<path d="M287.914,148.916c-0.054,0-0.054-0.63,0.054-0.683c1.152-0.104,1.885-0.262,2.196-0.472     c0.369-0.156,0.633-0.782,0.633-5.916v-4.081c0-5.132-0.264-5.762-0.633-5.916c-0.312-0.211-1.044-0.368-2.196-0.525     c-0.106,0-0.106-0.627-0.054-0.627c1.361,0,6.962,0,8.325,0c0.052,0,0.052,0.627-0.053,0.627c-1.15,0.157-1.884,0.314-2.199,0.525     c-0.365,0.154-0.627,0.784-0.627,5.916v4.081c0,5.134,0.262,5.76,0.627,5.916c0.315,0.21,1.049,0.366,2.199,0.472     c0.104,0.054,0.104,0.683,0.053,0.683C294.875,148.916,289.273,148.916,287.914,148.916z"/>
		<path d="M329.257,141.063c-1.101,0.104-1.465,0.208-1.832,0.472c-0.261,0.155-0.364,1.045-0.364,5.862v0.208     c-1.571,0.942-4.241,1.57-6.6,1.57c-5.757,0-10.47-4.187-10.47-9.162c0-4.813,3.877-9.578,10.368-9.578     c3.037,0,4.975,0.995,5.966,0.733c0.159,0,0.212,0.05,0.212,0.102c0.051,0.996,0.157,2.725,0.157,4.241     c0,0.106-0.733,0.106-0.733-0.055c-0.104-0.781-0.627-1.778-1.205-2.302c-1.047-0.993-2.933-1.673-4.868-1.673     c-4.608,0-7.017,3.508-7.017,7.746c0,4.663,3.088,8.797,8.531,8.797c1.312,0,2.256-0.209,3.09-0.575     c-0.053-5.133-0.208-5.759-0.471-5.914c-0.312-0.158-1.048-0.367-2.198-0.473c-0.104,0-0.104-0.678,0-0.678     c1.363,0,6.123,0,7.484,0C329.412,140.385,329.412,141.063,329.257,141.063z"/>
		<path d="M331.967,148.916c-0.049,0-0.049-0.63,0.057-0.683c1.153-0.104,1.882-0.262,2.199-0.472     c0.365-0.156,0.627-0.782,0.627-5.916v-4.081c0-5.132-0.262-5.762-0.627-5.916c-0.316-0.211-1.046-0.368-2.199-0.525     c-0.104,0-0.104-0.627-0.057-0.627c1.366,0,6.969,0,8.328,0c0.053,0,0.053,0.627-0.056,0.627     c-1.151,0.157-1.883,0.314-2.195,0.525c-0.366,0.154-0.633,0.784-0.633,5.916v4.081c0,5.134,0.267,5.76,0.633,5.916     c0.311,0.21,1.044,0.366,2.195,0.472c0.107,0.054,0.107,0.683,0.056,0.683C338.935,148.916,333.333,148.916,331.967,148.916z"/>
		<path d="M353.064,149.176c-5.548,0-9.685-4.081-9.685-9.162c0-4.813,4.137-9.578,10.054-9.578c5.548,0,9.685,4.082,9.685,9.161     C363.118,144.411,358.981,149.176,353.064,149.176z M352.856,131.586c-5.131,0-6.598,4.188-6.598,7.642     c0,4.557,2.723,8.797,7.383,8.797c5.13,0,6.598-4.187,6.598-7.64C360.239,135.827,357.514,131.586,352.856,131.586z"/>
		<path d="M405.972,130.698c-1.36,0-5.704,0-7.064,0c-0.106,0-0.157,0.627,0,0.627c1.204,0.105,1.884,0.262,2.249,0.523     c0.314,0.208,0.732,0.784,0.786,5.918l0.104,7.013l-13.924-14.133c-0.053-0.157-1.048-0.106-1.048,0.052     c0.153,2.199,0.106,4.71,0.153,7.068l0.058,4.081c0.051,5.134-0.223,5.641-0.473,5.862c-0.438,0.396-1.108,0.49-1.417,0.523     c-0.245,0.025-0.562,0.023-0.818,0c-0.451-0.044-1.02-0.199-1.478-0.364c-1.811-0.665-3.759-2.804-6.853-7.277     c2.039-1.205,3.716-3.035,3.716-5.285c0-2.306-2.458-4.608-6.805-4.608c-1.308,0-2.459,0.053-3.507,0.053     c-1.098,0-2.617-0.053-3.927-0.053c-0.106,0-0.106,0.627,0.055,0.627c1.096,0.159,1.623,0.316,1.986,0.523     c0.315,0.155,0.579,0.784,0.579,5.918v4.081c0,5.134-0.264,5.759-0.579,5.918c-0.363,0.212-0.89,0.366-1.986,0.472     c-0.161,0.052-0.161,0.681-0.055,0.681c1.359,0,7.015,0,8.373,0c0.055,0,0.055-0.631-0.049-0.681     c-1.256-0.104-2.146-0.26-2.515-0.472c-0.366-0.159-0.628-0.784-0.628-5.918v-0.628c1.099,0.054,1.57,0.104,2.985,0.054     c2.303,3.823,3.925,5.601,5.39,6.597c1.15,0.733,2.554,1.063,4.338,1.063c0.354,0,1.02-0.016,1.045-0.016c1.362,0,5.553,0,7.017,0     c0.104,0,0.157-0.681,0-0.681c-0.785,0-1.782-0.26-2.04-0.472c-0.421-0.313-0.785-1.205-0.838-5.918l-0.107-6.91l13.877,14.03     c0.155,0.16,1.047,0.104,1.047-0.05c-0.162-2.199-0.162-4.714-0.162-7.07v-4.081c0-5.134,0.267-5.654,0.525-5.862     c0.316-0.263,0.839-0.42,1.989-0.579C406.129,131.323,406.079,130.698,405.972,130.698z M373.418,140.279     c-1.359,0-1.936-0.212-2.25-0.473c-0.156-0.156-0.262-0.367-0.262-2.04c0-3.716,0.262-5.445,0.473-5.653     c0.104-0.208,0.733-0.364,1.729-0.364c2.773,0,3.925,1.986,3.925,4.501C377.032,138.391,375.564,140.279,373.418,140.279z"/>
		<path d="M409.211,148.916c-0.052,0-0.052-0.63,0.052-0.683c1.154-0.104,1.885-0.262,2.2-0.472     c0.365-0.156,0.626-0.782,0.626-5.916v-4.081c0-5.132-0.261-5.762-0.626-5.916c-0.315-0.211-1.048-0.368-2.2-0.525     c-0.103,0-0.103-0.627-0.052-0.627c1.363,0,6.966,0,8.325,0c0.054,0,0.054,0.627-0.056,0.627c-1.15,0.157-1.879,0.314-2.194,0.525     c-0.37,0.154-0.631,0.784-0.631,5.916v4.081c0,5.134,0.261,5.76,0.631,5.916c0.314,0.21,1.044,0.366,2.194,0.472     c0.108,0.054,0.108,0.683,0.056,0.683C416.176,148.916,410.574,148.916,409.211,148.916z"/>
		<g>
			<path d="M212.922,42.253c-0.443,0.388-0.944,1.721-0.944,11.827v9.333c0,6.665-5.11,13.053-14.609,13.053      c-8.662,0-13.939-5.722-13.939-12.942V54.08c0-10.108-0.5-11.607-1.166-11.997c-0.722-0.388-1.667-0.556-3.833-0.779      c-0.223-0.053-0.223-1.164-0.055-1.164c2.608,0,12.385,0,14.997,0c0.167,0,0.167,1.11-0.055,1.164      c-2.167,0.223-3.333,0.391-4.056,0.779c-0.667,0.39-1.168,1.889-1.168,11.997v8.444c0,6.11,3.835,11.163,11.167,11.163      c6.832,0,10.221-5.165,10.221-10.551V54.08c0-10.108-0.557-11.441-1.002-11.828c-0.61-0.556-1.889-0.725-4.109-0.947      c-0.224-0.054-0.169-1.165,0-1.165c2.609,0,9.829,0,12.439,0c0.167,0,0.28,1.11,0,1.165      C214.646,41.528,213.531,41.698,212.922,42.253z"/>
			<path d="M193.712,32.921c-1.167-0.446-1.61-0.669-1.61-0.946s0.221-0.333,0.609-0.444c1.167-0.333,2.666-0.776,3.331-1.056      c0.446-0.167,0.669-0.277,0.889-0.277c0.278,0,0.391,0.388,0.89,0.89c0.444,0.443,3.109,2.388,5.386,3.719      c0.612,0.333,1.055,0.556,1.055,0.779c0,0.166-0.221,0.609-0.5,0.609C202.763,36.197,194.6,33.253,193.712,32.921z"/>
		</g>
	</g>
</g>
</svg>
